<?xml version="1.0" encoding="UTF-8" standalone="no"?>
<svg width="115px" height="69px" viewBox="0 0 115 69" version="1.1" xmlns="http://www.w3.org/2000/svg" xmlns:xlink="http://www.w3.org/1999/xlink" xmlns:sketch="http://www.bohemiancoding.com/sketch/ns">
    <!-- Generator: Sketch 3.2.2 (9983) - http://www.bohemiancoding.com/sketch -->
    <title>x100t-icon</title>
    <desc>Created with Sketch.</desc>
    <defs></defs>
    <g id="Page-1" stroke="none" stroke-width="1" fill="none" fill-rule="evenodd" sketch:type="MSPage">
        <g id="x100t" sketch:type="MSLayerGroup" transform="translate(1.000000, 0.000000)" stroke="#979797">
            <path d="M0,8.150987 C1.47789876e-16,6.71266163 1.34398854,3.83601093 1.34398854,3.83601093 L8.09849536,3.83601092 C8.09849536,3.83601092 22.8773897,3.83601091 34.6553345,3.8360109 C38.5953371,3.8360109 42.1995149,3.8360109 44.8022748,3.8360109 C46.436837,3.8360109 47.0771154,0.660210371 48.7116776,0.660210371 C65.1867047,0.660210371 95.1330483,0.85288368 107.465682,0.937320633 C108.014245,0.941076438 113,1.97618513 113,1.97618513 L113,2.61794227 C113,24.4119615 113,68 113,68 L0,68 L0,8.150987 Z" id="Rectangle-1" sketch:type="MSShapeGroup"></path>
            <path d="M41,13.4957016 C41,12.6696484 41.6657972,12 42.5,12 C42.5,12 41.75,12 42.5,12 C43.25,12 42.5,12 42.5,12 C43.3284271,12 44,12.6712304 44,13.5086093 L44,13.9326741 L44,16.314777 C44,17.1394556 43.3898926,17.5126982 42.6493096,17.1542567 L42.5,17.0819909 L42.3506904,17.1542567 C41.6047247,17.5153034 41,17.1417394 41,16.312288 L41,13.4957016 Z" id="Rectangle-8" sketch:type="MSShapeGroup"></path>
            <path d="M0,15 L17,15 C17,15 15.747941,31.0831328 15.747941,39 C15.747941,47.0831328 17,63 17,63 L0,63 L0,15 Z" id="Rectangle-2" sketch:type="MSShapeGroup"></path>
            <rect id="Rectangle-3" sketch:type="MSShapeGroup" x="15" y="2" width="11" height="2.81885958" rx="8"></rect>
            <path d="M2,3.39494717 C2,2.62453912 2.62827653,2 3.40003783,2 L12.5999622,2 C13.3731817,2 14,2.61916798 14,3.39494717 L14,3.39494717 C14,4.16535522 13.3787522,4.78989434 12.6126764,4.78989434 L8,4.78989434 L3.40279843,4.78989434 C2.62805425,4.78989434 2,4.17072636 2,3.39494717 L2,3.39494717 Z" id="Rectangle-5" sketch:type="MSShapeGroup"></path>
            <rect id="Rectangle-4" sketch:type="MSShapeGroup" x="27" y="0.84932065" width="18" height="4" rx="8"></rect>
            <path d="M73,64 C86.254834,64 97,53.254834 97,40 C97,26.745166 86.254834,16 73,16 C70.6237556,16 68.3281696,16.3453399 66.1606925,16.9885693 C63.5274175,17.7700307 61.08323,18.991174 58.9132174,20.5669118 C58.118751,21.1438073 57.3610343,21.7682319 56.6442428,22.43601 C51.9412132,26.8174517 49,33.0652473 49,40 C49,53.254834 59.745166,64 73,64 Z" id="Oval-1" sketch:type="MSShapeGroup"></path>
            <circle id="Oval-3" sketch:type="MSShapeGroup" cx="73" cy="40" r="20"></circle>
            <circle id="Oval-5" sketch:type="MSShapeGroup" cx="73.0374044" cy="40.1870222" r="16.0374044"></circle>
            <path d="M73,47 C76.8659932,47 80,43.8659932 80,40 C80,36.1340068 76.8659932,33 73,33 C69.1340068,33 66,36.1340068 66,40 C66,43.8659932 69.1340068,47 73,47 Z" id="Oval-4" stroke-width="5" sketch:type="MSShapeGroup"></path>
            <rect id="Rectangle-6" sketch:type="MSShapeGroup" x="56" y="8" width="16" height="6"></rect>
            <rect id="Rectangle-7" sketch:type="MSShapeGroup" x="89" y="7" width="19" height="11"></rect>
            <path d="M42.5,22 C43.8807119,22 45,20.8807119 45,19.5 C45,18.1192881 43.8807119,17 42.5,17 C41.1192881,17 40,18.1192881 40,19.5 C40,20.8807119 41.1192881,22 42.5,22 Z" id="Oval-2" sketch:type="MSShapeGroup"></path>
            <circle id="Oval-6" sketch:type="MSShapeGroup" cx="51" cy="21" r="2"></circle>
            <rect id="Rectangle-9" sketch:type="MSShapeGroup" x="104" y="57" width="5" height="5"></rect>
            <path d="M87.5,20.5 L112.5,20.5" id="Line" stroke-linecap="square" sketch:type="MSShapeGroup"></path>
            <path d="M17.0302734,15.6917725 C17.0302734,15.6917725 18.0169199,16.4999999 18.5305696,16.4999999 C19.1537405,16.4999999 19.823791,16.4999999 20.5290045,16.4999999 C28.511728,16.4999999 41,16.5 41,16.5" id="Line" stroke-linecap="square" sketch:type="MSShapeGroup"></path>
            <path d="M112.5,63.5 C112.5,63.5 89.4751816,63.5 79.7235336,63.5 C77.2007362,63.5 75.6420059,64.0282871 72.9211273,64.028287 C70.2002487,64.0282869 69.8393832,63.5 67.1070025,63.5 L18.3209152,63.5 C17.6885468,63.5 16.0561783,62.5 15.4238098,62.5 L14.0305382,62.5 L0.5,62.5" id="Line" stroke-linecap="square" sketch:type="MSShapeGroup"></path>
            <path d="M43.5,16.5 L67.5,16.5" id="Line" stroke-linecap="square" sketch:type="MSShapeGroup"></path>
        </g>
    </g>
</svg>